<svg width="17" height="15" viewBox="0 0 17 15" fill="none" xmlns="http://www.w3.org/2000/svg">
<path d="M8.50003 14.2285H8.48953C6.55228 14.1925 0.962524 9.142 0.962524 4.3585C0.962524 2.0605 2.85627 0.0429993 5.01477 0.0429993C6.73227 0.0429993 7.88727 1.228 8.49927 2.0905C9.10977 1.2295 10.2648 0.0429993 11.983 0.0429993C14.143 0.0429993 16.036 2.0605 16.036 4.35925C16.036 9.14125 10.4455 14.1917 8.50828 14.227H8.50003V14.2285ZM5.01552 1.16875C3.45552 1.16875 2.08827 2.65975 2.08827 4.36C2.08827 8.665 7.36378 13.057 8.50078 13.1035C9.63928 13.057 14.9133 8.66575 14.9133 4.36C14.9133 2.65975 13.546 1.16875 11.986 1.16875C10.09 1.16875 9.03102 3.37075 9.02203 3.3925C8.84953 3.814 8.15503 3.814 7.98178 3.3925C7.97128 3.37 6.91302 1.16875 5.01627 1.16875H5.01552Z" fill="#828282"/>
</svg>
