<svg width="24" height="24" viewBox="0 0 24 24" fill="none" xmlns="http://www.w3.org/2000/svg">
<path d="M16.875 10.1042C15.8296 10.1042 14.9792 10.9568 14.9792 12C14.9792 13.0433 15.8285 13.8958 16.875 13.8958C17.9193 13.8958 18.7708 13.0443 18.7708 12C18.7708 10.9557 17.9193 10.1042 16.875 10.1042ZM16.875 12.8125C16.4265 12.8125 16.0625 12.4485 16.0625 12C16.0625 11.5526 16.4276 11.1875 16.875 11.1875C17.3224 11.1875 17.6875 11.5515 17.6875 12C17.6875 12.4474 17.3235 12.8125 16.875 12.8125ZM12 10.1042C10.9535 10.1042 10.1042 10.9568 10.1042 12C10.1042 13.0433 10.9546 13.8958 12 13.8958C13.0454 13.8958 13.8958 13.0443 13.8958 12C13.8958 10.9557 13.0465 10.1042 12 10.1042ZM12 12.8125C11.5515 12.8125 11.1875 12.4485 11.1875 12C11.1875 11.5526 11.5526 11.1875 12 11.1875C12.4474 11.1875 12.8125 11.5515 12.8125 12C12.8125 12.4474 12.4485 12.8125 12 12.8125ZM7.12499 10.1042C6.07957 10.1042 5.22916 10.9568 5.22916 12C5.22916 13.0433 6.07957 13.8958 7.12499 13.8958C8.16932 13.8958 9.02082 13.0443 9.02082 12C9.02082 10.9557 8.16824 10.1042 7.12499 10.1042ZM7.12499 12.8125C6.67649 12.8125 6.31249 12.4485 6.31249 12C6.31249 11.5526 6.67757 11.1875 7.12499 11.1875C7.57241 11.1875 7.93749 11.5515 7.93749 12C7.93749 12.4474 7.57349 12.8125 7.12499 12.8125Z" fill="black"/>
<path d="M12 23.6458C5.57799 23.6458 0.354156 18.422 0.354156 12C0.354156 5.57801 5.57799 0.354172 12 0.354172C18.422 0.354172 23.6458 5.57801 23.6458 12C23.6458 18.422 18.422 23.6458 12 23.6458ZM12 1.97917C6.47499 1.97917 1.97916 6.47501 1.97916 12C1.97916 17.525 6.47499 22.0208 12 22.0208C17.525 22.0208 22.0208 17.525 22.0208 12C22.0208 6.47501 17.525 1.97917 12 1.97917Z" fill="black"/>
</svg>
